HIERARCHY
ROOT Hips
{
	OFFSET	0.0000	0.0000	0.0000
	CHANNELS 6 Xposition Yposition Zposition Xrotation Yrotation Zrotation
	JOINT Spine
	{
		OFFSET	0.0000	9.6567	-5.2257
		CHANNELS 3 Xrotation Yrotation Zrotation
		JOINT Spine1
		{
			OFFSET	0.0000	8.8125	0.4604
			CHANNELS 3 Xrotation Yrotation Zrotation
			JOINT Spine2
			{
				OFFSET	0.0000	10.9044	-2.4272
				CHANNELS 3 Xrotation Yrotation Zrotation
				JOINT Neck
				{
					OFFSET	0.0000	24.5727	-0.5110
					CHANNELS 3 Xrotation Yrotation Zrotation
					JOINT Head
					{
						OFFSET	-0.0001	13.8765	3.7744
						CHANNELS 3 Xrotation Yrotation Zrotation
						End Site
						{
							OFFSET	0.0001	19.3889	0.5788
						}
					}
				}
				JOINT LeftShoulder
				{
					OFFSET	2.4808	23.7139	8.1245
					CHANNELS 3 Xrotation Yrotation Zrotation
					JOINT LeftArm
					{
						OFFSET	14.4933	3.4014	-5.5038
						CHANNELS 3 Xrotation Yrotation Zrotation
						JOINT LeftForeArm
						{
							OFFSET	30.7865	-0.1092	-0.2668
							CHANNELS 3 Xrotation Yrotation Zrotation
							JOINT LeftHand
							{
								OFFSET	25.6825	0.0745	-0.1539
								CHANNELS 3 Xrotation Yrotation Zrotation
								JOINT LeftHandIndex1
								{
									OFFSET	9.9538	0.8705	2.7646
									CHANNELS 3 Xrotation Yrotation Zrotation
									JOINT LeftHandIndex2
									{
										OFFSET	3.7232	-0.9079	0.6560
										CHANNELS 3 Xrotation Yrotation Zrotation
										JOINT LeftHandIndex3
										{
											OFFSET	2.5418	-0.6200	0.4480
											CHANNELS 3 Xrotation Yrotation Zrotation
											End Site
											{
												OFFSET	1.8087	-0.5399	0.2934
											}
										}
									}
								}
								JOINT LeftHandMiddle1
								{
									OFFSET	10.1024	1.0053	0.2407
									CHANNELS 3 Xrotation Yrotation Zrotation
									JOINT LeftHandMiddle2
									{
										OFFSET	4.6036	0.0129	-0.0272
										CHANNELS 3 Xrotation Yrotation Zrotation
										JOINT LeftHandMiddle3
										{
											OFFSET	2.5518	0.0078	-0.0155
											CHANNELS 3 Xrotation Yrotation Zrotation
											End Site
											{
												OFFSET	2.2919	-0.1619	0.0031
											}
										}
									}
								}
								JOINT LeftHandRing1
								{
									OFFSET	9.5741	0.6709	-2.2651
									CHANNELS 3 Xrotation Yrotation Zrotation
									JOINT LeftHandRing2
									{
										OFFSET	4.1772	-0.2115	-0.2615
										CHANNELS 3 Xrotation Yrotation Zrotation
										JOINT LeftHandRing3
										{
											OFFSET	2.3804	-0.1198	-0.1495
											CHANNELS 3 Xrotation Yrotation Zrotation
											End Site
											{
												OFFSET	2.1047	-0.2588	-0.0995
											}
										}
									}
								}
								JOINT LeftHandPinky1
								{
									OFFSET	8.8844	-0.6751	-3.9118
									CHANNELS 3 Xrotation Yrotation Zrotation
									JOINT LeftHandPinky2
									{
										OFFSET	2.5694	-0.5358	-0.7093
										CHANNELS 3 Xrotation Yrotation Zrotation
										JOINT LeftHandPinky3
										{
											OFFSET	1.8842	-0.3924	-0.5205
											CHANNELS 3 Xrotation Yrotation Zrotation
											End Site
											{
												OFFSET	1.6723	-0.4595	-0.3837
											}
										}
									}
								}
								JOINT LeftHandThumb1
								{
									OFFSET	2.0591	-1.5585	1.5610
									CHANNELS 3 Xrotation Yrotation Zrotation
									JOINT LeftHandThumb2
									{
										OFFSET	3.8337	-1.2590	2.8904
										CHANNELS 3 Xrotation Yrotation Zrotation
										JOINT LeftHandThumb3
										{
											OFFSET	2.5244	-0.9033	1.8187
											CHANNELS 3 Xrotation Yrotation Zrotation
											End Site
											{
												OFFSET	1.8564	-0.6390	1.2712
											}
										}
									}
								}
							}
						}
					}
				}
				JOINT RightShoulder
				{
					OFFSET	-2.4808	23.7139	8.1245
					CHANNELS 3 Xrotation Yrotation Zrotation
					JOINT RightArm
					{
						OFFSET	-14.4958	3.4020	-5.5048
						CHANNELS 3 Xrotation Yrotation Zrotation
						JOINT RightForeArm
						{
							OFFSET	-30.7865	-0.1091	-0.2668
							CHANNELS 3 Xrotation Yrotation Zrotation
							JOINT RightHand
							{
								OFFSET	-25.6825	0.0745	-0.1538
								CHANNELS 3 Xrotation Yrotation Zrotation
								JOINT RightHandIndex1
								{
									OFFSET	-9.9539	0.8706	2.7647
									CHANNELS 3 Xrotation Yrotation Zrotation
									JOINT RightHandIndex2
									{
										OFFSET	-3.7232	-0.9079	0.6560
										CHANNELS 3 Xrotation Yrotation Zrotation
										JOINT RightHandIndex3
										{
											OFFSET	-2.5417	-0.6201	0.4480
											CHANNELS 3 Xrotation Yrotation Zrotation
											End Site
											{
												OFFSET	-1.8087	-0.5399	0.2934
											}
										}
									}
								}
								JOINT RightHandMiddle1
								{
									OFFSET	-10.1024	1.0053	0.2407
									CHANNELS 3 Xrotation Yrotation Zrotation
									JOINT RightHandMiddle2
									{
										OFFSET	-4.6036	0.0129	-0.0272
										CHANNELS 3 Xrotation Yrotation Zrotation
										JOINT RightHandMiddle3
										{
											OFFSET	-2.5518	0.0078	-0.0156
											CHANNELS 3 Xrotation Yrotation Zrotation
											End Site
											{
												OFFSET	-2.2919	-0.1619	0.0031
											}
										}
									}
								}
								JOINT RightHandRing1
								{
									OFFSET	-9.5741	0.6709	-2.2651
									CHANNELS 3 Xrotation Yrotation Zrotation
									JOINT RightHandRing2
									{
										OFFSET	-4.1772	-0.2115	-0.2615
										CHANNELS 3 Xrotation Yrotation Zrotation
										JOINT RightHandRing3
										{
											OFFSET	-2.3804	-0.1198	-0.1495
											CHANNELS 3 Xrotation Yrotation Zrotation
											End Site
											{
												OFFSET	-2.1047	-0.2588	-0.0995
											}
										}
									}
								}
								JOINT RightHandPinky1
								{
									OFFSET	-8.8844	-0.6751	-3.9117
									CHANNELS 3 Xrotation Yrotation Zrotation
									JOINT RightHandPinky2
									{
										OFFSET	-2.5694	-0.5358	-0.7093
										CHANNELS 3 Xrotation Yrotation Zrotation
										JOINT RightHandPinky3
										{
											OFFSET	-1.8841	-0.3923	-0.5205
											CHANNELS 3 Xrotation Yrotation Zrotation
											End Site
											{
												OFFSET	-1.6723	-0.4595	-0.3837
											}
										}
									}
								}
								JOINT RightHandThumb1
								{
									OFFSET	-2.0591	-1.5584	1.5609
									CHANNELS 3 Xrotation Yrotation Zrotation
									JOINT RightHandThumb2
									{
										OFFSET	-3.8336	-1.2592	2.8905
										CHANNELS 3 Xrotation Yrotation Zrotation
										JOINT RightHandThumb3
										{
											OFFSET	-2.5244	-0.9032	1.8187
											CHANNELS 3 Xrotation Yrotation Zrotation
											End Site
											{
												OFFSET	-1.8564	-0.6390	1.2712
											}
										}
									}
								}
							}
						}
					}
				}
			}
		}
	}
	JOINT RightUpLeg
	{
		OFFSET	-10.3303	4.3651	-0.8515
		CHANNELS 3 Xrotation Yrotation Zrotation
		JOINT RightLeg
		{
			OFFSET	-0.8266	-44.9320	0.0000
			CHANNELS 3 Xrotation Yrotation Zrotation
			JOINT RightFoot
			{
				OFFSET	0.0000	-44.1205	0.0000
				CHANNELS 3 Xrotation Yrotation Zrotation
				JOINT RightToeBase
				{
					OFFSET	0.0000	-4.8492	10.1404
					CHANNELS 3 Xrotation Yrotation Zrotation
					End Site
					{
						OFFSET	0.0000	0.0000	6.8028
					}
				}
			}
		}
	}
	JOINT LeftUpLeg
	{
		OFFSET	10.3301	4.3654	-0.8515
		CHANNELS 3 Xrotation Yrotation Zrotation
		JOINT LeftLeg
		{
			OFFSET	0.8267	-44.9323	0.0000
			CHANNELS 3 Xrotation Yrotation Zrotation
			JOINT LeftFoot
			{
				OFFSET	0.0000	-44.1205	0.0000
				CHANNELS 3 Xrotation Yrotation Zrotation
				JOINT LeftToeBase
				{
					OFFSET	0.0000	-4.8493	10.1404
					CHANNELS 3 Xrotation Yrotation Zrotation
					End Site
					{
						OFFSET	0.0000	0.0000	6.8028
					}
				}
			}
		}
	}
}
MOTION
Frames:	5
Frame Time: 0.0333333000
	-56.8386	96.5500	-131.7959	1.027694	36.705900	0.024430	0.000000	0.000000	0.000000	-0.030006	-1.421302	-1.032419	-0.200730	-4.733503	-3.450044	2.659119	-0.317452	1.287933	1.352262	-0.050553	2.801049	0.000000	0.000004	-9.747917	38.591740	-12.943980	-43.467950	0.196746	-50.979970	0.071082	0.000000	0.000002	-0.000001	0.000000	0.000000	-0.000001	0.000000	0.000000	-0.000001	0.000000	0.000000	-0.000001	0.000000	0.000000	-0.000001	0.000000	0.000000	-0.000001	0.000000	0.000000	-0.000001	0.000000	0.000000	-0.000001	0.000000	0.000000	-0.000001	0.000000	0.000000	-0.000001	0.000000	0.000000	-0.000001	0.000000	0.000000	-0.000001	0.000000	0.000000	-0.000001	0.000000	0.000000	-0.000001	0.000000	0.000000	-0.000001	0.000000	0.000000	-0.000001	0.000000	0.000004	-12.161820	-85.626030	28.383030	-17.360970	4.341300	88.092990	-4.143645	0.000000	0.000003	0.000001	0.000000	-0.000004	-0.000002	0.000000	0.000000	0.000000	0.000000	0.000000	0.000000	0.000000	-0.000004	-0.000002	0.000000	0.000000	0.000000	0.000000	0.000000	0.000000	0.000000	-0.000004	-0.000002	0.000000	0.000000	0.000000	0.000000	0.000000	0.000000	0.000000	-0.000004	-0.000002	0.000000	0.000000	0.000000	0.000000	0.000000	0.000000	0.000000	-0.000004	-0.000002	0.000000	0.000000	0.000000	0.000000	0.000000	0.000000	-18.919430	-16.606610	-11.323010	20.125260	0.000001	0.000000	23.454300	-4.371424	-1.079027	-0.000003	-0.000001	0.000000	-5.872056	0.033493	4.133897	3.594881	-0.000002	0.000000	-1.016146	0.803011	0.392970	0.000000	-0.000005	0.000000
	-56.9494	96.5329	-131.6320	1.168522	36.510780	0.127297	0.000000	0.000000	0.000000	-0.036266	-1.438100	-1.068803	-0.230247	-4.791148	-3.581820	3.764853	-0.144913	0.626780	1.248063	-0.052837	2.786524	0.000000	0.000002	-9.752471	38.549640	-12.937320	-43.512810	0.192595	-50.381930	0.068050	0.000000	0.000000	0.000000	0.000000	0.000000	0.000000	0.000000	0.000000	0.000000	0.000000	0.000000	0.000000	0.000000	0.000000	0.000000	0.000000	0.000000	0.000000	0.000000	0.000000	0.000000	0.000000	0.000000	0.000000	0.000000	0.000000	0.000000	0.000000	0.000000	0.000000	0.000000	0.000000	0.000000	0.000000	0.000000	0.000000	0.000000	0.000000	0.000000	0.000000	0.000000	0.000000	0.000000	0.000000	0.000000	0.000000	0.000000	0.000000	0.000000	-0.000001	-12.305680	-91.212750	30.382420	-14.480770	3.663014	87.734020	-3.467114	-0.000001	0.000002	0.000000	0.000000	0.000001	0.000001	0.000000	0.000001	0.000001	0.000000	0.000001	0.000001	0.000000	0.000001	0.000001	0.000000	0.000001	0.000001	0.000000	0.000001	0.000001	0.000000	0.000001	0.000001	0.000000	0.000001	0.000001	0.000000	0.000001	0.000001	0.000000	0.000001	0.000001	0.000000	0.000001	0.000001	0.000000	0.000001	0.000001	0.000000	0.000001	0.000001	0.000000	0.000001	0.000001	0.000000	0.000001	0.000001	-19.901500	-16.842970	-11.827990	21.224490	0.000001	-0.000001	23.073840	-4.128493	-1.031924	0.000000	-0.000001	0.000000	-5.782008	0.020748	4.110123	3.532375	-0.000001	0.000000	-1.190389	0.971184	0.476283	0.000000	0.000004	0.000000
	-57.1175	96.5087	-131.3718	1.435860	36.255160	0.293499	0.000000	0.000001	0.000000	-0.044076	-1.449961	-1.098030	-0.272494	-4.838852	-3.709116	5.224946	0.048291	-0.190357	1.153651	-0.053874	2.722308	0.000000	0.000006	-9.793540	38.461330	-13.243640	-43.593310	0.184652	-49.022040	0.061472	0.000001	0.000000	-0.000002	0.000000	0.000000	-0.000001	0.000000	0.000000	-0.000001	0.000000	0.000000	-0.000001	0.000000	0.000000	-0.000001	0.000000	0.000000	-0.000001	0.000000	0.000000	-0.000001	0.000000	0.000000	-0.000001	0.000000	0.000000	-0.000001	0.000000	0.000000	-0.000001	0.000000	0.000000	-0.000001	0.000000	0.000000	-0.000001	0.000000	0.000000	-0.000001	0.000000	0.000000	-0.000001	0.000000	0.000000	-0.000001	0.000000	0.000000	-0.000001	0.000000	0.000001	-12.415180	-95.532750	30.707690	-11.305550	5.774719	88.560460	-5.579877	0.000000	-0.000008	-0.000005	0.000001	0.000003	0.000003	-0.000001	0.000002	0.000000	0.000000	0.000001	0.000001	0.000001	0.000003	0.000003	-0.000001	0.000002	0.000000	0.000000	0.000001	0.000001	0.000001	0.000003	0.000003	-0.000001	0.000002	0.000000	0.000000	0.000001	0.000001	0.000001	0.000003	0.000003	-0.000001	0.000002	0.000000	0.000000	0.000001	0.000001	0.000001	0.000003	0.000003	-0.000001	0.000002	0.000000	0.000000	0.000001	0.000001	-20.654360	-17.145150	-12.329420	21.654670	-0.000001	-0.000001	22.051850	-4.166562	-1.078776	0.000000	0.000000	0.000000	-5.654468	0.014460	4.017482	3.234427	-0.000005	0.000000	-1.147433	1.182005	0.578193	0.000000	-0.000005	0.000000
	-57.3519	96.4469	-131.0513	1.913045	36.078490	0.511972	0.000000	0.000000	0.000000	-0.066297	-1.468355	-1.152322	-0.327326	-4.877906	-3.831043	6.018585	0.136119	-0.612931	1.060514	-0.054295	2.635926	0.000000	0.000005	-9.799173	38.301010	-13.849280	-43.634190	0.173553	-46.938590	0.052774	-0.000001	0.000002	0.000004	0.000000	0.000001	0.000004	0.000000	0.000001	0.000004	0.000000	0.000001	0.000004	0.000000	0.000001	0.000004	0.000000	0.000001	0.000004	0.000000	0.000001	0.000004	0.000000	0.000001	0.000004	0.000000	0.000001	0.000004	0.000000	0.000001	0.000004	0.000000	0.000001	0.000004	0.000000	0.000001	0.000004	0.000000	0.000001	0.000004	0.000000	0.000001	0.000004	0.000000	0.000001	0.000004	0.000000	0.000001	0.000004	0.000000	0.000004	-12.528010	-96.094650	29.253240	-9.263070	172.315000	88.922070	-172.119100	0.000000	0.000001	0.000001	0.000000	0.000004	0.000002	0.000000	0.000000	0.000000	0.000000	0.000003	0.000002	0.000000	0.000004	0.000002	0.000000	0.000000	0.000000	0.000000	0.000003	0.000002	0.000000	0.000004	0.000002	0.000000	0.000000	0.000000	0.000000	0.000003	0.000002	0.000000	0.000004	0.000002	0.000000	0.000000	0.000000	0.000000	0.000003	0.000002	0.000000	0.000004	0.000002	0.000000	0.000000	0.000000	0.000000	0.000003	0.000002	-21.363060	-17.475080	-12.891250	21.708210	-0.000003	0.000000	20.303180	-4.372529	-1.204519	-0.000001	0.000000	0.000000	-5.722641	0.006758	3.803785	2.970227	-0.000002	0.000001	-1.101507	1.349306	0.659628	0.000000	-0.000005	0.000000
	-57.7063	96.3289	-130.6711	2.600148	36.177000	0.741192	0.000000	0.000000	0.000000	-0.084525	-1.477120	-1.182943	-0.394447	-4.909940	-3.946787	5.309728	0.076618	-0.354528	0.952299	-0.054992	2.552662	0.000000	-0.000001	-9.850860	38.023380	-14.770810	-43.477960	0.160734	-44.525520	0.044541	0.000000	-0.000002	0.000000	0.000000	0.000000	0.000000	0.000000	0.000000	0.000000	0.000000	0.000000	0.000000	0.000000	0.000000	0.000000	0.000000	0.000000	0.000000	0.000000	0.000000	0.000000	0.000000	0.000000	0.000000	0.000000	0.000000	0.000000	0.000000	0.000000	0.000000	0.000000	0.000000	0.000000	0.000000	0.000000	0.000000	0.000000	0.000000	0.000000	0.000000	0.000000	0.000000	0.000000	0.000000	0.000000	0.000000	0.000000	0.000000	0.000000	0.000000	-12.570050	-92.845020	26.635390	-8.323092	178.088200	85.715580	-177.889800	0.000000	0.000001	-0.000001	0.000000	-0.000004	-0.000002	0.000000	0.000002	0.000001	-0.000001	-0.000003	-0.000003	0.000000	-0.000004	-0.000002	0.000000	0.000002	0.000001	-0.000001	-0.000003	-0.000003	0.000000	-0.000004	-0.000002	0.000000	0.000002	0.000001	-0.000001	-0.000003	-0.000003	0.000000	-0.000004	-0.000002	0.000000	0.000002	0.000001	-0.000001	-0.000003	-0.000003	0.000000	-0.000004	-0.000002	0.000000	0.000002	0.000001	-0.000001	-0.000003	-0.000003	-22.137990	-17.814560	-13.498550	21.729400	-0.000005	0.000000	17.962210	-4.677502	-1.393735	0.000000	0.000000	0.000000	-6.159775	-0.012846	3.526644	2.991485	0.000006	0.000000	-1.232677	1.308073	0.642821	0.000000	0.000005	0.000000
